<!DOCTYPE svg PUBLIC "-//W3C//DTD SVG 20010904//EN" "http://www.w3.org/TR/2001/REC-SVG-20010904/DTD/svg10.dtd">
<svg version="1.0" xmlns="http://www.w3.org/2000/svg" width="281px" height="372px" viewBox="0 0 2810 3720" preserveAspectRatio="xMidYMid meet">
<g id="layer101" fill="#121522" stroke="none">
<path d="M305 3637 c0 -87 0 -87 56 -154 15 -17 30 -46 34 -65 7 -35 84 -267 133 -405 17 -46 27 -83 24 -83 -27 1 -51 15 -56 34 -7 30 -52 73 -100 98 -32 16 -54 19 -120 16 -108 -4 -167 -33 -218 -106 -47 -68 -59 -161 -33 -262 29 -119 33 -134 50 -235 15 -85 22 -103 48 -129 23 -23 31 -43 36 -86 4 -30 17 -77 30 -105 36 -81 67 -167 75 -210 24 -129 106 -325 176 -419 81 -110 129 -138 325 -190 55 -15 143 -42 195 -60 l95 -32 51 -77 c27 -42 60 -87 72 -100 20 -21 21 -30 16 -86 -4 -38 -13 -68 -22 -75 -8 -6 -32 -28 -53 -48 -47 -46 -84 -152 -74 -210 4 -23 1 -56 -8 -85 -25 -77 -29 -126 -17 -194 10 -55 19 -72 76 -140 53 -64 77 -84 145 -119 87 -45 111 -49 360 -66 79 -6 91 -4 148 21 33 15 61 31 61 35 0 4 20 30 44 56 55 62 76 103 82 162 5 38 1 56 -22 97 -34 64 -48 179 -28 245 29 95 6 253 -53 361 l-36 67 49 74 49 73 228 116 c130 66 243 130 263 150 66 62 152 207 192 324 25 74 62 243 62 287 0 18 12 76 26 128 15 52 31 117 36 145 5 27 16 62 25 78 8 17 19 59 24 94 5 35 16 78 25 94 13 26 14 50 5 172 -12 163 -20 193 -71 262 -84 113 -110 124 -252 104 -80 -11 -92 -15 -110 -40 -12 -16 -50 -47 -85 -70 -35 -22 -79 -57 -98 -76 -47 -48 -60 -37 -49 41 5 33 9 135 9 226 1 124 4 171 15 190 8 15 15 57 16 105 0 44 5 97 9 118 l8 37 -934 0 -934 0 0 -83z"/>
</g>
<g id="layer102" fill="#192c63" stroke="none">
<path d="M306 3647 c1 -94 -2 -86 43 -146 22 -29 43 -67 47 -85 11 -55 115 -361 126 -371 7 -7 8 -2 3 15 -7 22 -6 23 8 12 9 -8 43 -14 76 -15 34 -1 61 -5 61 -8 0 -3 25 -11 55 -18 30 -7 61 -19 69 -27 8 -8 19 -14 24 -14 12 0 66 -70 59 -76 -5 -6 -32 -12 -54 -13 -22 -2 -35 -39 -22 -63 l12 -23 -24 21 c-39 36 -126 74 -166 74 -34 0 -40 4 -57 40 -21 44 -32 48 -17 6 8 -20 7 -26 -3 -26 -25 0 -46 12 -46 26 0 19 -58 82 -91 100 -45 23 -45 16 -1 -16 45 -32 67 -61 76 -100 4 -18 2 -16 -9 8 -30 64 -78 79 -181 57 -22 -5 -35 -2 -47 9 -22 23 -40 21 -28 -3 6 -10 7 -21 4 -25 -12 -11 -48 -6 -71 10 -28 19 -38 12 -82 -54 -16 -25 -30 -41 -30 -35 0 6 15 33 33 59 23 36 47 56 87 76 58 29 54 38 -5 14 -43 -19 -75 -49 -110 -106 -24 -38 -28 -55 -29 -130 -1 -60 6 -109 21 -165 12 -44 30 -124 39 -178 15 -83 22 -104 47 -130 22 -24 32 -46 37 -87 4 -30 26 -100 49 -155 24 -55 49 -128 57 -163 42 -179 103 -324 179 -422 86 -111 117 -129 305 -179 63 -17 158 -46 210 -64 l95 -33 51 -77 c27 -42 60 -87 72 -100 20 -21 21 -30 16 -86 -4 -38 -13 -68 -22 -75 -89 -68 -125 -144 -126 -263 -1 -67 0 -71 14 -54 8 10 33 21 54 24 41 6 81 37 92 69 11 35 24 18 24 -31 0 -28 4 -52 9 -56 5 -3 46 -10 90 -17 44 -6 78 -14 76 -18 -3 -5 -22 -4 -42 0 -21 4 -57 11 -80 14 -51 7 -55 -3 -22 -58 11 -19 18 -40 14 -46 -3 -5 -2 -10 4 -10 6 0 9 -14 7 -31 -5 -42 55 -105 147 -155 63 -33 73 -36 123 -30 46 5 54 4 54 -10 0 -16 2 -16 17 -1 10 8 35 18 56 22 25 5 54 23 89 56 28 26 56 47 62 46 6 -1 11 12 11 28 1 46 34 45 68 -2 35 -49 35 -32 0 32 -34 64 -47 178 -27 245 29 95 6 253 -53 360 l-36 68 46 70 c26 38 53 74 60 80 7 6 113 61 234 122 195 97 227 116 269 163 55 60 142 212 172 302 26 75 62 244 62 287 0 18 12 76 26 128 15 52 31 117 36 143 5 26 18 68 29 93 10 25 19 61 19 80 0 20 9 57 20 83 20 44 20 56 11 189 -12 166 -25 205 -101 292 -67 77 -93 85 -213 69 -84 -12 -95 -16 -123 -46 -17 -19 -51 -46 -75 -62 -24 -15 -68 -49 -96 -75 -36 -33 -54 -44 -58 -34 -10 27 -9 55 4 113 10 42 12 98 8 189 -5 105 -3 138 11 175 9 25 17 80 18 121 0 41 4 92 9 113 l8 37 -934 0 -934 0 1 -73z m2189 -487 c-28 -12 -55 -12 -55 0 0 6 17 10 38 9 30 0 33 -2 17 -9z m-141 -64 c-3 -8 -15 -17 -27 -20 -21 -5 -20 -4 3 14 30 24 31 24 24 6z m-301 -56 c10 -28 22 -48 28 -45 5 4 9 -12 9 -37 -1 -40 -2 -42 -16 -23 -8 11 -20 27 -28 36 -17 20 -36 76 -36 105 0 38 24 18 43 -36z m-101 -168 c21 -14 46 -22 57 -19 16 4 19 -1 19 -34 0 -21 -6 -43 -14 -50 -9 -7 -14 -8 -14 -1 0 6 5 14 10 17 20 12 9 31 -32 53 -52 27 -113 75 -83 65 11 -4 37 -18 57 -31z m-1336 -118 c19 -9 33 -18 31 -20 -4 -4 -75 20 -83 29 -13 13 18 7 52 -9z m1150 -63 c15 -21 22 -51 23 -106 2 -50 83 -42 118 11 9 14 18 22 20 20 3 -3 -18 -39 -46 -81 -28 -42 -51 -80 -51 -85 0 -5 14 -11 30 -15 17 -4 36 -12 43 -18 6 -7 24 -18 40 -24 15 -7 27 -19 27 -28 0 -8 9 -24 20 -35 24 -24 23 -80 -3 -108 -30 -33 -89 -163 -93 -204 -4 -47 -10 -58 -30 -58 -8 0 -14 -4 -14 -10 0 -5 -4 -10 -10 -10 -13 0 -13 47 1 55 6 4 8 14 5 22 -6 15 6 69 25 121 7 19 13 22 21 14 15 -15 38 -16 38 -2 0 6 -7 10 -15 10 -8 0 -15 4 -15 8 0 5 -11 14 -25 20 -30 14 -33 32 -5 32 12 0 25 -10 31 -24 7 -15 19 -24 30 -23 19 1 28 17 10 17 -5 0 -12 12 -16 27 -5 20 -2 31 10 39 9 7 14 18 10 24 -3 6 -3 10 2 9 22 -4 33 3 33 21 0 23 -29 27 -48 8 -16 -16 -16 4 1 22 6 8 2 6 -11 -5 -15 -12 -19 -21 -11 -26 6 -4 8 -12 5 -18 -11 -18 -34 -13 -41 9 -3 11 -13 20 -21 20 -8 0 -13 4 -10 9 3 5 -5 12 -19 15 -16 4 -22 11 -19 21 5 12 0 12 -27 5 -18 -5 -49 -18 -70 -28 l-37 -19 -4 49 c-2 40 1 53 18 69 23 21 24 42 5 77 -10 18 -15 20 -31 12 -17 -9 -20 -21 -20 -70 l0 -60 -54 0 c-81 0 -86 4 -86 65 0 96 28 145 82 145 18 0 28 5 28 15 0 8 5 14 12 13 6 -2 14 6 16 17 2 10 11 29 19 42 21 31 86 28 109 -6z m-1204 -23 c57 -12 58 -12 58 -47 0 -24 -8 -43 -27 -64 -23 -23 -28 -36 -26 -73 1 -38 -1 -43 -13 -33 -25 20 -11 80 28 123 19 21 22 35 12 60 -9 23 -21 20 -59 -18 -18 -18 -48 -41 -65 -50 -30 -14 -31 -14 -25 2 4 9 11 33 17 52 19 70 11 66 100 48z m86 -228 c4 -106 3 -110 -17 -110 -23 0 -29 28 -10 47 15 15 14 120 -1 138 -8 10 -8 15 0 20 6 4 9 14 5 24 -5 13 -4 14 7 3 8 -8 14 -50 16 -122z m-378 -9 c0 -12 -41 -63 -47 -57 -4 4 37 66 44 66 2 0 3 -4 3 -9z m-78 -98 c2 -32 -3 -68 -13 -77 -5 -6 -9 8 -9 36 0 28 -5 48 -12 51 -7 3 -3 6 10 6 14 1 23 -5 24 -16z m1914 3 c-1 -8 -7 -20 -13 -27 -6 -8 -13 -23 -16 -34 -4 -18 -5 -18 -6 3 0 12 -7 22 -13 22 -7 1 1 12 17 25 35 29 34 29 31 11z m-36 -131 c-1 -5 -7 -21 -15 -35 -8 -14 -14 -33 -15 -43 0 -11 -7 -33 -14 -50 -8 -18 -17 -45 -19 -62 l-3 -30 -13 30 c-8 20 -10 51 -6 95 10 104 12 107 51 106 18 -1 34 -5 34 -11z m-484 -18 l49 4 -24 -20 c-30 -27 -98 -29 -116 -4 -12 17 -14 17 -35 -2 -19 -17 -20 -17 -14 -1 9 23 43 36 70 26 11 -5 42 -6 70 -3z m-171 -292 c-43 -35 -57 -30 -16 5 19 16 37 27 40 24 3 -3 -8 -16 -24 -29z m351 -112 c1 -16 2 -37 3 -48 3 -30 -11 -78 -26 -94 -23 -22 -43 7 -48 69 -2 29 -8 56 -14 60 -7 4 -3 11 11 17 59 29 73 28 74 -4z m-241 -15 c35 -23 42 -41 25 -68 -7 -11 -15 -12 -37 -4 -24 8 -28 15 -29 52 -1 23 1 42 3 42 2 0 19 -10 38 -22z m115 -43 c0 -30 -3 -35 -24 -35 -19 0 -25 6 -28 30 -5 36 -2 40 29 40 20 0 23 -5 23 -35z m-1237 -74 c9 -8 17 -24 17 -34 0 -37 115 -168 168 -192 20 -9 45 -20 55 -26 10 -5 41 -14 70 -19 28 -6 56 -15 62 -21 27 -28 -168 36 -221 72 -50 34 -125 132 -165 214 -16 33 -23 51 -17 41 7 -10 21 -26 31 -35z m770 -78 c4 -3 -2 -21 -13 -38 -18 -29 -18 -34 -5 -45 10 -8 33 -11 64 -8 54 5 60 -5 26 -42 -22 -24 -38 -25 -55 -5 -20 24 -72 18 -99 -10 -28 -30 -33 -30 -58 -7 -10 9 -17 16 -14 15 5 -3 24 27 40 65 6 12 15 22 21 22 8 0 8 -6 0 -20 -6 -11 -9 -20 -6 -20 2 0 11 -3 20 -6 9 -3 16 -1 16 6 0 6 -4 8 -10 5 -5 -3 -10 -3 -10 2 0 11 20 40 20 30 0 -11 50 24 50 35 0 6 -6 6 -14 -1 -16 -13 -32 2 -21 19 7 11 38 13 48 3z m377 -1015 c0 -11 -27 -10 -34 1 -4 5 -3 17 1 27 6 16 7 16 20 -2 7 -10 13 -21 13 -26z m290 31 c0 -8 -32 -29 -44 -29 -3 0 -6 8 -6 19 0 13 7 19 25 19 14 0 25 -4 25 -9z m-28 -81 c-9 -9 -42 -1 -42 12 0 4 12 5 26 2 15 -3 22 -8 16 -14z"/>
<path d="M1571 2560 c-8 -4 -11 -15 -8 -24 7 -17 32 -22 41 -7 3 5 14 7 25 4 12 -3 20 2 24 16 6 23 -12 28 -31 9 -8 -8 -15 -8 -24 0 -8 6 -19 7 -27 2z"/>
<path d="M233 3073 c9 -2 25 -2 35 0 9 3 1 5 -18 5 -19 0 -27 -2 -17 -5z"/>
<path d="M313 3073 c9 -2 25 -2 35 0 9 3 1 5 -18 5 -19 0 -27 -2 -17 -5z"/>
</g>
<g id="layer103" fill="#5a4c50" stroke="none">
<path d="M395 3051 c17 -10 40 -29 52 -42 23 -25 47 -78 39 -87 -3 -2 -8 7 -12 22 -3 14 -20 36 -36 47 -26 19 -39 21 -104 16 -57 -4 -77 -2 -88 9 -22 21 -39 18 -27 -5 8 -13 5 -28 -9 -56 -10 -21 -24 -61 -30 -89 -14 -67 4 -112 61 -158 l40 -32 -4 -123 c-4 -112 -6 -126 -31 -163 -30 -46 -32 -62 -10 -81 13 -11 22 -10 52 6 43 23 78 72 93 129 6 23 17 48 24 56 22 26 53 94 60 134 4 21 14 40 21 43 7 3 43 -2 80 -11 73 -16 98 -11 109 25 4 11 18 24 32 30 14 5 27 18 30 29 4 14 14 20 34 20 44 0 55 31 21 62 -41 39 -126 78 -169 78 -34 0 -40 4 -57 40 -21 44 -32 48 -17 6 9 -22 8 -26 -7 -26 -23 0 -34 10 -52 45 -16 30 -93 95 -113 95 -7 0 2 -8 18 -19z m221 -297 c19 -9 33 -18 31 -20 -4 -4 -75 20 -83 29 -13 13 18 7 52 -9z"/>
<path d="M2005 2734 c-42 -44 -75 -92 -75 -113 0 -7 -22 -47 -50 -88 -27 -41 -50 -78 -50 -83 0 -5 14 -11 30 -15 17 -4 36 -12 43 -18 6 -7 24 -18 40 -24 15 -7 27 -19 27 -28 0 -15 10 -19 40 -16 9 1 11 -1 5 -6 -16 -12 -10 -84 7 -94 11 -6 14 -2 11 19 -3 24 10 37 105 111 l108 84 -7 67 c-9 105 -91 226 -160 236 -32 5 -40 2 -74 -32z"/>
<path d="M1632 2558 c-16 -16 -15 -28 3 -28 8 0 15 9 15 20 0 23 -2 24 -18 8z"/>
<path d="M1560 2546 c0 -15 27 -29 40 -21 5 3 7 12 3 20 -7 19 -43 20 -43 1z"/>
<path d="M1568 2498 c9 -9 15 -9 24 0 9 9 7 12 -12 12 -19 0 -21 -3 -12 -12z"/>
<path d="M1834 2406 c-10 -8 -16 -17 -13 -20 3 -3 14 3 24 14 21 23 17 26 -11 6z"/>
<path d="M1496 2370 c-3 -19 -6 -65 -6 -103 0 -61 2 -68 23 -76 13 -5 45 -7 73 -4 l49 4 -24 -20 c-30 -27 -98 -29 -117 -3 -13 16 -15 16 -33 -5 -19 -22 -37 -116 -25 -134 3 -6 1 -23 -6 -39 -9 -22 -9 -33 0 -50 10 -19 8 -25 -20 -49 -23 -19 -31 -33 -29 -51 3 -21 9 -25 39 -25 23 0 53 -13 87 -35 43 -28 53 -40 53 -63 0 -27 -2 -28 -42 -25 -41 3 -43 2 -55 -35 -16 -49 -3 -111 30 -144 51 -52 146 -37 188 30 22 35 21 64 -2 169 -12 54 -12 59 6 72 11 8 34 17 51 20 46 9 60 32 79 131 10 50 28 119 40 155 19 57 25 65 45 62 20 -3 21 -2 9 11 -8 7 -24 19 -37 26 -25 13 -29 31 -8 31 8 0 17 10 19 23 l4 22 2 -22 c0 -13 6 -23 11 -23 6 0 9 12 7 28 -3 17 -10 27 -20 26 -9 -1 -15 2 -12 6 8 14 -6 40 -22 40 -8 0 -12 4 -9 9 3 5 -5 12 -19 15 -16 4 -22 11 -19 21 5 12 0 12 -27 5 -18 -5 -49 -18 -70 -28 l-38 -19 -3 39 -3 39 -82 2 -81 2 -6 -35z m146 -640 c5 -36 3 -40 -34 -40 -24 0 -28 4 -28 28 0 34 6 42 36 42 17 0 23 -7 26 -30z"/>
<path d="M1936 2322 c-8 -7 27 -31 36 -26 5 3 8 9 8 13 0 10 -37 21 -44 13z"/>
<path d="M1980 2215 c-19 -20 -20 -25 -7 -25 9 0 21 9 27 21 17 31 7 33 -20 4z"/>
<path d="M1910 2185 c0 -17 9 -19 28 -6 11 7 10 10 -3 15 -23 9 -25 8 -25 -9z"/>
<path d="M1267 1468 c-9 -33 -52 -56 -75 -40 -42 30 -64 19 -77 -40 -7 -29 -19 -36 -31 -17 -11 19 -97 69 -117 69 -16 0 -13 -11 27 -84 l45 -85 -37 5 -37 5 45 -19 c37 -16 54 -33 96 -95 27 -42 60 -87 72 -100 20 -21 21 -30 16 -86 -4 -38 -13 -68 -22 -75 -89 -68 -125 -144 -126 -263 -1 -67 0 -71 14 -54 8 10 33 21 54 24 41 6 81 37 92 69 11 35 24 18 24 -31 0 -28 4 -52 9 -56 5 -3 46 -10 90 -17 44 -6 78 -14 76 -18 -3 -5 -22 -4 -42 0 -21 4 -57 11 -80 14 -51 7 -55 -3 -22 -58 11 -19 18 -40 14 -46 -3 -5 -2 -10 4 -10 6 0 9 -14 7 -31 -5 -42 55 -105 147 -155 63 -33 73 -36 123 -30 46 5 54 4 54 -10 0 -16 2 -16 18 -1 9 8 34 18 55 22 25 5 54 23 89 56 28 26 56 45 61 42 6 -4 8 5 5 21 -3 15 0 42 6 61 l12 35 39 -60 c47 -72 58 -71 19 2 -35 67 -48 180 -28 248 29 95 6 253 -53 360 l-36 68 47 71 c26 39 51 73 57 76 18 12 9 26 -10 16 -16 -9 -19 -6 -24 30 -3 22 -17 73 -33 115 -26 72 -46 90 -52 46 -3 -21 -43 -67 -72 -82 -11 -6 -35 4 -80 33 -86 54 -187 88 -281 94 -74 6 -76 5 -82 -19z m43 -20 c0 -6 -7 -5 -15 2 -8 7 -15 17 -15 22 0 6 7 5 15 -2 8 -7 15 -17 15 -22z m240 -890 c0 -11 -27 -10 -34 1 -4 5 -3 17 1 27 6 16 7 16 20 -2 7 -10 13 -21 13 -26z m290 31 c0 -8 -32 -29 -44 -29 -3 0 -6 8 -6 19 0 13 7 19 25 19 14 0 25 -4 25 -9z m-13 -86 c-24 -12 -29 -12 -42 1 -21 21 -20 22 27 18 l42 -4 -27 -15z"/>
</g>
<g id="layer104" fill="#44539b" stroke="none">
<path d="M2044 3695 c-4 -14 -4 -29 0 -32 9 -10 36 18 36 38 0 28 -29 23 -36 -6z"/>
<path d="M2123 3663 c-1 -19 1 -22 8 -12 11 17 12 39 2 39 -5 0 -9 -12 -10 -27z"/>
<path d="M2066 3652 c-8 -15 -17 -152 -9 -152 18 0 35 18 24 24 -16 10 -14 26 4 26 8 0 15 5 15 12 0 9 3 9 12 0 10 -10 10 -15 -1 -21 -15 -9 -12 -44 4 -39 11 3 12 79 2 120 -6 24 -42 45 -51 30z"/>
<path d="M220 3022 c0 -6 4 -14 10 -17 6 -4 2 -17 -10 -33 -11 -15 -26 -54 -35 -86 -19 -74 -6 -125 39 -159 54 -41 63 -40 70 4 3 21 10 39 15 39 5 0 21 20 35 45 15 24 36 51 48 60 13 9 17 15 9 15 -10 0 -9 6 5 22 18 20 18 21 1 15 -12 -4 -16 -3 -11 4 4 6 21 8 43 5 36 -6 36 -6 11 8 -34 21 -67 19 -118 -4 l-43 -19 -8 22 c-5 12 -7 25 -5 29 7 11 135 8 155 -5 25 -16 37 0 13 18 -29 22 -82 29 -133 17 -41 -9 -48 -8 -68 10 -13 12 -23 16 -23 10z m38 -134 c-6 -15 -19 -33 -30 -39 -18 -10 -19 -8 -13 13 4 12 14 30 21 39 8 8 14 22 14 30 0 12 2 12 9 0 5 -8 5 -26 -1 -43z m102 23 c0 -13 -29 -35 -37 -28 -7 8 15 37 28 37 5 0 9 -4 9 -9z m-11 -63 c-9 -16 -14 -19 -17 -9 -2 7 2 17 9 22 20 13 21 11 8 -13z m-120 -25 c0 -5 -4 -17 -9 -28 -8 -18 -9 -17 -9 8 -1 15 4 27 9 27 6 0 10 -3 9 -7z"/>
<path d="M1996 2723 c-33 -34 -48 -59 -53 -86 -3 -21 -20 -57 -37 -80 -40 -54 -69 -98 -64 -101 20 -15 81 -46 89 -46 5 0 22 -11 37 -25 15 -14 32 -25 39 -25 7 0 13 -5 13 -11 0 -6 -7 -9 -15 -5 -13 5 -14 2 -4 -16 7 -12 12 -34 11 -49 0 -15 5 -30 12 -32 9 -4 11 2 8 20 -5 29 44 86 93 108 17 7 50 30 75 52 l45 38 -6 65 c-6 72 -14 92 -68 163 -37 50 -75 77 -109 77 -11 0 -40 -21 -66 -47z"/>
<path d="M1627 2554 c-8 -8 1 -24 14 -24 5 0 9 7 9 15 0 15 -12 20 -23 9z"/>
<path d="M1646 2511 c-3 -4 -2 -28 3 -52 l8 -44 4 53 c4 48 -2 65 -15 43z"/>
<path d="M1500 2298 c0 -96 0 -98 26 -104 14 -4 43 -4 65 -1 46 6 49 -3 13 -32 -32 -25 -86 -27 -109 -5 -28 28 -46 -2 -49 -82 -2 -38 -7 -77 -11 -87 -4 -10 -3 -29 4 -43 14 -33 14 -44 -2 -44 -21 0 -57 -39 -57 -60 0 -17 7 -20 41 -20 29 0 53 -9 86 -31 39 -27 51 -31 88 -26 41 6 43 5 49 -24 8 -40 1 -49 -35 -49 -24 0 -29 4 -29 25 0 14 -4 25 -10 25 -5 0 -10 -11 -10 -25 0 -22 -4 -25 -39 -25 -50 0 -63 -17 -63 -81 0 -63 23 -99 79 -118 49 -18 87 -9 124 28 41 41 45 71 22 170 -12 51 -17 91 -11 97 4 6 28 17 53 24 24 7 51 20 60 30 8 9 22 56 31 104 8 48 23 113 33 146 13 40 15 62 8 69 -6 6 -10 32 -9 58 1 62 -12 95 -48 121 -39 29 -97 14 -113 -29 -17 -45 -27 -35 -27 29 l0 57 -80 0 -80 0 0 -97z"/>
<path d="M1950 2305 c7 -8 16 -12 21 -9 16 9 10 20 -12 21 -17 2 -18 -1 -9 -12z"/>
<path d="M1300 1485 c0 -5 7 -16 16 -26 14 -16 14 -18 -5 -29 -18 -9 -21 -8 -21 10 0 24 -13 26 -30 4 -28 -33 -50 -37 -75 -14 l-23 22 -21 -21 c-12 -12 -24 -35 -28 -52 l-6 -30 -26 24 c-36 33 -95 67 -116 67 -14 0 -8 -16 29 -84 l45 -85 -37 5 -37 5 45 -19 c37 -16 54 -33 96 -95 27 -42 60 -87 72 -100 20 -21 21 -30 16 -86 -4 -38 -13 -68 -22 -75 -8 -6 -32 -28 -53 -48 -46 -46 -84 -152 -74 -208 6 -37 8 -38 77 -32 26 3 75 55 81 88 4 16 13 74 22 128 21 129 37 165 88 208 69 57 188 118 233 118 21 0 56 5 77 11 46 12 96 -1 115 -31 14 -23 2 -26 -28 -7 -14 8 -23 9 -28 2 -4 -5 -25 -10 -47 -10 -42 1 -95 -19 -95 -35 0 -6 -9 -10 -20 -10 -11 0 -20 -4 -20 -10 0 -5 -12 -7 -28 -4 -19 4 -35 -1 -52 -15 -39 -32 -43 -37 -70 -71 -14 -18 -31 -38 -37 -45 -7 -8 -13 -19 -13 -25 0 -6 -4 -9 -9 -5 -16 9 -23 -14 -27 -85 -2 -37 -8 -79 -14 -94 -15 -40 -13 -123 3 -129 38 -15 150 -19 173 -7 21 12 26 11 38 -6 13 -17 12 -20 -7 -27 -11 -4 -26 -6 -32 -3 -7 2 -18 0 -26 -4 -10 -7 -2 -14 31 -29 39 -17 52 -18 98 -9 39 8 56 8 64 0 19 -19 0 -27 -74 -29 -76 -2 -116 11 -141 48 -20 28 -127 53 -127 30 0 -5 16 -28 35 -51 19 -23 35 -49 35 -58 0 -10 6 -34 14 -55 14 -41 96 -117 126 -117 10 0 23 -7 31 -16 10 -12 23 -14 53 -9 23 3 64 7 93 9 104 5 200 104 219 223 8 46 8 47 15 18 5 -20 7 -6 5 40 -2 39 3 90 10 115 29 95 6 253 -53 360 l-36 68 47 71 c26 39 51 73 57 76 18 12 9 26 -10 16 -16 -9 -19 -6 -24 31 -6 46 -58 188 -68 188 -4 0 -12 -13 -17 -29 -10 -28 -67 -91 -82 -91 -4 0 -35 19 -69 41 -34 23 -93 52 -132 66 -71 24 -199 42 -199 28z m418 -464 c11 -7 10 -10 -3 -15 -20 -7 -38 1 -30 15 7 11 16 11 33 0z m-498 -86 c0 -8 -4 -17 -10 -20 -6 -4 -10 5 -10 20 0 15 4 24 10 20 6 -3 10 -12 10 -20z m558 -39 c2 -11 -1 -17 -8 -14 -6 2 -11 7 -10 12 1 5 -4 13 -12 18 -9 7 -8 8 7 6 11 -2 21 -12 23 -22z m-7 -77 c-26 -21 -47 -24 -56 -9 -3 6 2 10 12 10 11 0 28 6 39 14 28 21 33 8 5 -15z m24 -190 c6 -4 22 -9 36 -13 15 -3 29 -15 32 -26 3 -12 1 -17 -5 -14 -5 3 -17 -1 -26 -9 -9 -8 -24 -17 -32 -20 -16 -5 -13 -6 37 -23 14 -4 12 -9 -15 -26 -31 -19 -34 -19 -58 -3 -18 11 -24 23 -21 36 5 17 -3 23 -24 21 -4 -1 -9 7 -12 18 -6 23 17 34 33 14 17 -20 37 -17 43 6 6 24 -6 34 -33 25 -18 -6 -27 4 -15 16 6 7 48 5 60 -2z m-225 -14 c10 -12 10 -15 -4 -15 -9 0 -16 -5 -16 -11 0 -5 4 -8 9 -5 16 10 22 -27 7 -43 -12 -12 -20 -12 -40 -3 -22 10 -25 16 -19 44 9 48 38 63 63 33z"/>
</g>
<g id="layer105" fill="#9f7c72" stroke="none">
<path d="M220 3022 c0 -6 5 -14 11 -17 7 -5 6 -12 -4 -23 -24 -29 -50 -131 -44 -174 6 -42 52 -102 87 -111 14 -4 19 3 24 34 3 22 10 39 15 39 5 0 21 20 35 45 15 24 36 51 48 60 13 9 17 15 9 15 -10 0 -9 6 5 22 18 20 18 21 1 15 -12 -4 -16 -3 -11 4 4 6 21 8 43 5 36 -6 36 -6 11 8 -34 21 -67 19 -118 -4 l-43 -19 -8 22 c-5 12 -7 25 -5 29 7 11 135 8 155 -5 25 -16 37 0 13 18 -29 22 -82 29 -133 17 -41 -9 -48 -8 -68 10 -13 12 -23 16 -23 10z m38 -134 c-6 -15 -19 -33 -30 -39 -18 -10 -19 -8 -13 13 4 12 14 30 21 39 8 8 14 22 14 30 0 12 2 12 9 0 5 -8 5 -26 -1 -43z m102 23 c0 -13 -29 -35 -37 -28 -7 8 15 37 28 37 5 0 9 -4 9 -9z m-11 -63 c-9 -16 -14 -19 -17 -9 -2 7 2 17 9 22 20 13 21 11 8 -13z m-120 -25 c0 -5 -4 -17 -9 -28 -8 -18 -9 -17 -9 8 -1 15 4 27 9 27 6 0 10 -3 9 -7z"/>
<path d="M470 2890 c-19 -10 -43 -19 -53 -20 -10 0 -16 -4 -12 -9 3 -6 0 -13 -7 -18 -26 -16 -80 -95 -94 -136 -7 -23 -17 -99 -22 -168 -8 -114 -11 -129 -35 -161 -51 -67 0 -94 67 -35 28 25 40 46 52 92 8 33 23 69 33 80 25 27 43 63 52 105 7 32 6 33 -7 16 -12 -17 -17 -18 -39 -6 -28 15 -25 31 5 23 14 -4 30 3 45 17 24 22 25 22 101 7 84 -17 114 -11 114 23 0 14 -11 22 -41 30 -53 15 -89 31 -89 42 0 15 31 9 90 -18 69 -31 94 -29 98 8 3 25 5 26 28 16 20 -9 28 -8 41 5 16 15 15 18 -7 42 -43 46 -108 71 -200 78 -73 6 -90 4 -120 -13z m-122 -220 c-13 -10 -25 -14 -27 -9 -4 12 31 39 42 32 4 -2 -3 -13 -15 -23z"/>
<path d="M1991 2713 c-23 -25 -44 -58 -47 -72 -6 -32 -18 -54 -67 -126 -22 -31 -37 -57 -35 -59 19 -14 81 -46 89 -46 5 0 22 -11 37 -25 15 -14 32 -25 38 -25 7 0 15 -7 18 -16 8 -22 8 -26 -3 -19 -5 3 -9 -10 -8 -29 2 -31 17 -42 17 -12 0 15 66 77 100 95 14 7 42 27 64 45 33 29 39 40 44 84 6 62 -25 133 -89 206 -35 40 -46 46 -79 46 -33 0 -44 -6 -79 -47z"/>
<path d="M1500 2298 c0 -96 0 -98 26 -104 14 -4 43 -4 65 -1 46 6 49 -3 13 -32 -32 -25 -86 -27 -109 -5 -28 28 -46 -2 -49 -82 -2 -38 -7 -77 -11 -87 -4 -10 -3 -29 4 -43 16 -35 15 -38 -19 -52 -29 -13 -47 -43 -35 -62 3 -5 22 -10 41 -10 23 0 51 -11 81 -31 39 -27 51 -31 88 -26 41 6 43 5 49 -25 3 -17 6 -34 6 -39 0 -5 -38 -9 -85 -9 -98 0 -106 -7 -103 -87 1 -39 7 -54 34 -80 26 -27 40 -33 73 -33 56 0 95 22 114 63 15 31 15 41 -2 128 -11 56 -15 99 -9 105 4 6 29 17 54 24 25 7 51 22 58 34 8 12 21 60 30 108 9 48 25 112 36 142 13 38 15 57 7 65 -5 5 -10 32 -9 58 1 62 -12 95 -48 121 -39 29 -97 14 -113 -29 -17 -45 -27 -35 -27 29 l0 57 -80 0 -80 0 0 -97z"/>
<path d="M1300 1483 c0 -3 7 -14 16 -24 14 -16 14 -18 -5 -29 -18 -9 -21 -8 -21 10 0 24 -13 26 -30 4 -28 -33 -50 -37 -75 -14 l-23 21 -20 -22 c-12 -12 -24 -35 -27 -51 l-7 -28 -30 25 c-37 32 -108 68 -116 61 -5 -6 37 -91 70 -138 24 -34 23 -36 -9 -32 -27 4 -27 4 4 -11 21 -9 48 -40 78 -87 26 -40 58 -85 71 -99 22 -23 24 -31 18 -88 -4 -38 -13 -68 -22 -75 -8 -6 -32 -28 -53 -48 -46 -46 -84 -152 -74 -208 6 -37 8 -38 77 -32 26 3 75 55 81 88 4 16 13 74 22 128 21 129 37 165 88 208 69 57 188 118 233 118 21 0 56 5 77 11 42 11 96 -1 118 -27 18 -21 3 -29 -27 -14 -15 9 -28 10 -32 5 -4 -6 -25 -10 -47 -10 -42 1 -95 -19 -95 -35 0 -6 -9 -10 -20 -10 -11 0 -20 -4 -20 -10 0 -5 -12 -7 -28 -4 -19 4 -35 -1 -52 -15 -39 -32 -43 -37 -70 -71 -14 -18 -31 -38 -37 -45 -7 -8 -13 -19 -13 -25 0 -6 -4 -9 -9 -5 -16 9 -23 -14 -27 -85 -2 -37 -8 -79 -14 -94 -15 -40 -13 -123 3 -129 38 -15 150 -19 173 -7 21 12 26 11 38 -6 13 -17 12 -20 -7 -27 -11 -4 -26 -6 -32 -3 -7 2 -18 0 -26 -4 -10 -7 -2 -14 31 -29 39 -17 52 -18 98 -9 39 8 56 8 64 0 19 -19 0 -27 -74 -29 -76 -2 -116 11 -141 48 -20 28 -127 53 -127 30 0 -5 16 -28 35 -51 19 -23 35 -49 35 -58 0 -10 6 -34 14 -55 14 -41 96 -117 126 -117 10 0 23 -7 31 -16 10 -12 23 -14 53 -9 23 3 64 7 92 9 92 5 184 85 200 174 7 36 -7 55 -33 45 -22 -9 -66 26 -60 48 5 17 -3 23 -24 21 -4 -1 -9 7 -12 18 -6 23 17 34 33 14 17 -20 37 -17 43 6 6 24 -6 33 -34 25 -15 -5 -20 -3 -17 6 5 14 48 20 63 9 6 -4 22 -10 36 -14 15 -3 29 -14 32 -25 3 -13 0 -18 -8 -15 -6 3 -18 -2 -25 -11 -7 -8 -19 -15 -27 -15 -8 0 -11 -4 -8 -10 3 -5 21 -10 40 -10 18 0 36 -6 39 -12 3 -7 4 12 2 42 -2 30 3 75 10 100 29 95 6 252 -53 360 l-36 68 46 70 c46 68 56 89 38 78 -5 -3 -12 15 -16 40 -7 47 -50 173 -65 187 -4 5 -11 -5 -15 -22 -6 -28 -67 -91 -87 -91 -4 0 -33 16 -63 35 -79 51 -139 75 -225 91 -85 15 -110 17 -110 7z m418 -462 c11 -7 10 -10 -3 -15 -20 -7 -38 1 -30 15 7 11 16 11 33 0z m-498 -86 c0 -8 -4 -17 -10 -20 -6 -4 -10 5 -10 20 0 15 4 24 10 20 6 -3 10 -12 10 -20z m558 -39 c2 -11 -1 -17 -8 -14 -6 2 -11 7 -10 12 1 5 -4 13 -12 18 -9 7 -8 8 7 6 11 -2 21 -12 23 -22z m-7 -77 c-26 -21 -47 -24 -56 -9 -3 6 2 10 12 10 11 0 28 6 39 14 28 21 33 8 5 -15z m-201 -204 c10 -12 10 -15 -4 -15 -9 0 -16 -5 -16 -11 0 -5 4 -8 9 -5 16 10 22 -27 7 -43 -12 -12 -20 -12 -40 -3 -22 10 -25 16 -19 44 9 48 38 63 63 33z"/>
</g>
<g id="layer106" fill="#bf5f61" stroke="none">
<path d="M220 3022 c0 -6 5 -14 11 -17 7 -5 6 -12 -4 -23 -24 -29 -50 -131 -44 -175 4 -32 14 -50 43 -74 45 -39 58 -35 38 13 -19 44 -8 83 34 122 16 15 33 35 38 45 7 11 29 21 60 26 46 8 47 9 12 10 -21 0 -56 -6 -78 -15 -46 -19 -47 -18 -52 16 -3 23 0 25 52 31 36 4 67 1 89 -8 42 -16 48 -12 20 13 -22 20 -99 26 -151 11 -21 -6 -32 -2 -48 15 -11 12 -20 17 -20 10z m46 -90 c10 -15 7 -26 -12 -58 -13 -21 -24 -51 -24 -66 0 -16 -4 -28 -10 -28 -16 0 -12 58 8 117 9 29 19 53 22 53 3 0 10 -8 16 -18z"/>
<path d="M1300 1483 c0 -3 7 -14 16 -24 17 -19 11 -39 -12 -39 -8 0 -14 9 -14 20 0 27 -12 25 -40 -5 -29 -30 -37 -31 -66 -4 l-22 20 -20 -22 c-12 -12 -24 -35 -27 -51 l-7 -28 -30 25 c-37 32 -108 68 -116 61 -5 -6 37 -91 70 -138 24 -34 23 -36 -9 -32 l-28 4 30 -14 c19 -8 53 -47 90 -102 85 -124 120 -121 76 7 -14 43 -16 59 -7 71 10 13 16 8 46 -36 19 -28 34 -52 35 -52 0 -1 15 -5 33 -9 25 -5 32 -3 32 9 0 24 59 57 81 45 10 -5 29 -9 42 -9 20 0 24 4 20 19 -3 13 2 21 17 26 22 7 80 -11 80 -25 0 -14 60 -17 68 -4 5 10 21 4 60 -22 53 -36 71 -71 31 -61 -15 4 -19 2 -15 -9 4 -10 -2 -14 -19 -14 -13 0 -26 4 -29 9 -10 15 -78 19 -83 4 -3 -7 -10 -13 -17 -13 -6 0 -24 -18 -40 -40 -17 -22 -33 -40 -38 -40 -4 0 -8 -8 -8 -17 0 -14 -4 -12 -18 8 -16 25 -42 29 -42 7 0 -6 -20 -30 -45 -54 -49 -48 -64 -87 -46 -116 6 -10 7 -18 2 -18 -5 0 -12 -15 -16 -32 -15 -72 -26 -108 -35 -108 -5 0 -6 17 -3 38 4 26 3 34 -5 27 -6 -6 -14 -27 -17 -48 -5 -28 -2 -39 9 -43 11 -4 13 -12 6 -29 -8 -20 -5 -23 22 -29 45 -9 86 -7 93 4 3 6 15 10 26 10 11 0 17 4 14 10 -3 5 3 19 13 30 29 31 108 32 147 2 17 -14 31 -19 33 -13 2 6 8 11 14 11 6 0 7 -7 4 -16 -3 -8 -2 -12 4 -9 6 3 10 -5 10 -19 0 -14 -5 -26 -11 -26 -6 0 -9 7 -5 15 3 8 1 15 -4 15 -10 0 -14 -38 -10 -92 1 -19 -4 -28 -14 -29 -17 -2 -34 -5 -38 -8 -2 -1 -25 -3 -53 -5 -64 -3 -134 20 -164 56 -13 15 -34 28 -47 28 -22 0 -22 -1 -7 -31 12 -23 18 -28 24 -18 6 10 9 8 9 -8 0 -12 4 -32 9 -45 5 -13 12 -35 15 -49 8 -35 74 -109 98 -109 11 0 33 -9 49 -21 30 -21 37 -21 116 8 24 9 40 20 36 26 -4 6 0 8 11 4 9 -4 37 -4 62 0 39 5 51 12 75 46 51 70 49 133 -3 119 -32 -8 -67 17 -65 46 2 25 0 26 -45 23 -27 -1 -48 2 -48 7 0 5 11 7 25 4 21 -4 25 -1 25 21 0 14 5 29 10 32 6 3 10 -1 10 -10 0 -9 4 -14 9 -10 5 3 12 1 16 -5 9 -15 42 -12 49 5 4 11 -2 15 -24 15 -39 0 -43 10 -15 43 19 21 32 27 62 26 36 -1 36 -2 9 -8 -33 -7 -34 -9 -20 -32 10 -18 54 -32 70 -21 15 11 34 83 34 133 0 83 -29 200 -67 269 l-36 68 46 70 c46 68 56 89 38 78 -5 -3 -12 15 -16 40 -7 47 -50 173 -65 187 -4 5 -11 -5 -15 -22 -6 -28 -67 -91 -87 -91 -4 0 -33 16 -63 35 -79 51 -139 75 -225 91 -85 15 -110 17 -110 7z m428 -467 c5 -38 -14 -48 -54 -28 l-33 15 25 24 c33 31 58 26 62 -11z m-136 -96 c-18 -11 -39 -20 -47 -20 -8 0 -15 -4 -15 -9 0 -13 131 -24 180 -16 38 6 41 9 36 31 -5 19 -2 24 13 24 10 0 24 -6 30 -13 8 -10 4 -20 -19 -42 -32 -31 -39 -51 -15 -41 49 20 50 19 26 -7 -14 -15 -30 -27 -37 -27 -7 0 -14 -4 -16 -10 -1 -5 -16 -11 -33 -13 -16 -3 -24 -2 -17 0 23 8 12 22 -18 21 -59 -2 -52 21 13 42 21 7 37 13 35 15 -2 1 -45 5 -96 8 -68 4 -92 3 -91 -6 1 -7 -2 -23 -8 -36 l-9 -23 -17 26 c-19 29 -22 51 -6 40 8 -4 9 1 4 16 -6 19 -4 22 9 17 11 -4 32 3 54 18 20 14 46 25 57 25 16 0 13 -4 -13 -20z m231 -50 c3 -11 1 -23 -4 -26 -5 -3 -9 6 -9 20 0 31 6 34 13 6z m-243 -46 c0 -8 -7 -14 -15 -14 -8 0 -15 5 -15 11 0 5 -4 7 -10 4 -5 -3 -7 0 -4 8 7 18 44 10 44 -9z m50 -44 c0 -5 -7 -10 -15 -10 -8 0 -15 -7 -15 -15 0 -9 7 -18 15 -21 8 -4 15 -11 15 -17 0 -5 -9 -2 -20 8 -23 21 -25 36 -8 53 15 15 28 16 28 2z"/>
</g>
<g id="layer107" fill="#967c93" stroke="none">
<path d="M2057 3713 c-11 -10 -8 -43 3 -43 6 0 10 11 10 25 0 26 -2 29 -13 18z"/>
<path d="M220 3022 c0 -6 5 -14 11 -17 7 -5 6 -12 -4 -23 -24 -29 -50 -131 -44 -175 4 -32 14 -50 43 -75 40 -34 52 -36 35 -4 -17 32 -13 94 9 130 22 36 24 42 12 42 -16 0 -52 -78 -52 -111 0 -26 -3 -30 -10 -19 -15 23 -12 69 7 125 10 28 18 52 20 54 1 2 11 -7 22 -20 l20 -24 -9 33 c-10 37 -9 38 61 45 27 2 60 -2 79 -10 41 -16 47 -12 19 13 -22 20 -99 26 -151 11 -21 -6 -32 -2 -48 15 -11 12 -20 17 -20 10z"/>
<path d="M631 2891 c-8 -5 -20 -7 -28 -4 -7 3 -13 1 -13 -5 0 -14 63 -52 85 -52 9 0 34 -13 55 -30 43 -34 52 -36 71 -14 11 13 8 19 -17 41 -54 46 -130 78 -153 64z"/>
<path d="M440 2855 c-14 -7 -25 -17 -25 -22 -1 -4 -18 -26 -38 -47 -20 -22 -37 -44 -37 -48 0 -15 52 -58 78 -65 17 -4 29 -1 37 10 10 14 20 15 66 6 110 -21 136 -22 143 -4 9 25 -1 35 -38 35 -19 0 -43 9 -56 20 -35 30 -67 35 -90 15 -24 -22 -39 -12 -19 11 13 16 12 16 -8 5 -15 -7 -20 -17 -16 -28 4 -11 3 -14 -5 -9 -7 4 -10 17 -8 29 3 12 5 26 5 31 1 5 17 6 36 3 20 -3 35 -2 35 4 0 5 13 3 30 -6 16 -8 36 -15 44 -15 9 0 40 -12 70 -27 57 -28 86 -26 86 6 0 25 -161 107 -188 95 -30 -13 -71 -12 -74 1 -2 11 -8 11 -28 0z"/>
<path d="M1997 2721 c-43 -48 -60 -78 -53 -96 3 -8 -10 -33 -28 -57 -17 -24 -41 -59 -52 -77 l-20 -35 46 -23 c25 -12 54 -21 65 -18 11 3 14 2 7 -1 -9 -4 -6 -12 10 -30 13 -13 28 -24 34 -24 7 0 15 -7 18 -16 8 -22 8 -26 -3 -19 -5 3 -9 -10 -8 -29 2 -33 17 -41 17 -9 0 19 52 68 94 88 17 9 48 31 70 49 33 29 39 40 44 84 6 62 -25 133 -89 206 -35 39 -46 46 -79 46 -31 0 -44 -7 -73 -39z"/>
<path d="M298 2655 c-15 -46 -19 -136 -8 -150 17 -20 6 -53 -36 -114 -28 -42 -33 -55 -23 -67 19 -23 45 -16 83 20 27 25 36 42 36 65 0 38 40 137 49 122 4 -6 12 -1 20 11 12 19 11 20 -5 14 -14 -5 -11 1 8 21 l28 29 -35 2 c-24 2 -37 -2 -41 -13 -14 -36 -60 -1 -66 50 -3 25 -5 27 -10 10z"/>
<path d="M1653 2480 c0 -25 2 -35 4 -22 2 12 2 32 0 45 -2 12 -4 2 -4 -23z"/>
<path d="M1500 2298 c0 -96 0 -98 25 -104 14 -3 45 -3 70 0 49 8 56 -1 25 -29 -24 -22 -83 -33 -132 -25 -32 6 -38 4 -38 -10 0 -22 30 -50 31 -29 0 8 4 3 10 -9 5 -13 18 -26 29 -29 35 -9 22 -23 -20 -21 -39 1 -53 12 -28 20 7 3 3 7 -8 10 -16 4 -20 1 -19 -14 1 -11 6 -23 12 -26 5 -4 12 -20 15 -35 5 -26 4 -27 -13 -11 -16 14 -19 15 -24 2 -9 -22 13 -69 34 -75 11 -3 21 -13 24 -24 5 -20 -7 -26 -18 -9 -4 6 -11 7 -17 4 -6 -4 -14 -1 -18 5 -11 19 -65 -31 -57 -52 7 -20 67 -24 67 -5 0 6 10 2 23 -10 13 -12 28 -22 34 -22 6 0 16 -6 22 -14 13 -15 54 -29 46 -15 -5 6 51 2 62 -5 0 -1 4 -18 8 -38 l7 -38 -86 0 c-99 0 -107 -7 -104 -87 1 -39 7 -54 34 -80 26 -27 40 -33 73 -33 56 0 95 22 114 63 15 32 15 41 -3 133 -21 109 -22 106 45 126 22 6 46 17 53 23 8 7 24 61 37 121 13 60 30 127 38 148 13 39 13 41 -15 68 -31 31 -35 46 -13 54 27 11 18 61 -18 100 -30 33 -34 35 -60 23 -24 -11 -25 -13 -10 -24 15 -11 14 -13 -8 -20 -13 -4 -34 -17 -46 -28 l-23 -20 0 69 0 69 -80 0 -80 0 0 -97z m30 -348 c0 -5 -10 -10 -22 -10 -19 0 -20 2 -8 10 19 13 30 13 30 0z"/>
<path d="M1300 1481 c0 -16 29 -33 42 -25 7 4 4 -2 -6 -14 -24 -27 -46 -28 -46 -2 0 27 -12 25 -40 -5 -29 -30 -37 -31 -66 -4 l-22 20 -20 -22 c-12 -12 -24 -35 -27 -51 l-7 -28 -30 25 c-37 32 -108 68 -116 61 -5 -6 37 -91 70 -138 24 -34 23 -36 -9 -32 l-28 4 30 -14 c19 -8 53 -47 90 -102 85 -124 120 -121 76 7 -14 43 -16 59 -7 71 10 13 16 8 46 -36 19 -28 34 -52 35 -52 0 -1 15 -5 33 -9 25 -5 32 -3 32 9 0 24 59 57 81 45 10 -5 29 -9 42 -9 20 0 24 4 20 19 -3 13 2 21 17 26 22 7 80 -11 80 -25 0 -14 60 -17 68 -4 5 10 21 4 60 -22 53 -36 71 -71 31 -61 -15 4 -19 2 -15 -9 4 -10 -2 -14 -19 -14 -13 0 -26 4 -29 9 -10 15 -78 19 -83 4 -3 -7 -10 -13 -17 -13 -6 0 -24 -18 -40 -40 -17 -22 -33 -40 -38 -40 -4 0 -8 -8 -8 -17 0 -14 -4 -12 -18 8 -16 25 -42 29 -42 7 0 -6 -20 -30 -45 -54 -49 -48 -64 -87 -46 -116 6 -10 7 -18 2 -18 -5 0 -12 -15 -16 -32 -15 -72 -26 -108 -35 -108 -5 0 -6 17 -3 38 4 26 3 34 -5 27 -6 -6 -14 -27 -17 -48 -5 -28 -2 -39 9 -43 11 -4 13 -12 6 -29 -8 -20 -5 -23 22 -29 45 -9 86 -7 93 4 3 6 15 10 26 10 11 0 17 4 14 10 -3 5 3 19 13 30 29 31 108 32 147 2 17 -14 31 -19 33 -13 2 6 8 11 14 11 6 0 7 -7 4 -16 -3 -8 -2 -12 4 -9 6 3 10 -5 10 -19 0 -14 -5 -26 -11 -26 -6 0 -9 7 -5 15 3 8 1 15 -4 15 -10 0 -14 -38 -10 -92 1 -19 -4 -28 -14 -29 -17 -2 -34 -5 -38 -8 -2 -1 -25 -3 -53 -5 -64 -3 -134 20 -164 56 -13 15 -34 28 -47 28 -22 0 -22 -1 -7 -31 12 -23 18 -28 24 -18 6 10 9 8 9 -8 0 -12 4 -32 9 -45 5 -13 12 -35 15 -49 8 -35 74 -109 98 -109 11 0 33 -9 49 -21 30 -21 37 -21 116 8 24 9 40 20 36 26 -4 6 0 8 11 4 9 -4 37 -4 62 0 39 5 51 12 75 46 51 70 49 133 -3 119 -32 -8 -67 17 -65 46 2 25 0 26 -45 23 -27 -1 -48 2 -48 7 0 5 11 7 25 4 21 -4 25 -1 25 21 0 14 5 29 10 32 6 3 10 -1 10 -10 0 -9 4 -14 9 -10 5 3 12 1 16 -5 9 -15 42 -12 49 5 4 11 -2 15 -24 15 -39 0 -43 10 -15 43 19 21 32 27 62 26 36 -1 36 -2 9 -8 -33 -7 -34 -9 -20 -32 10 -18 54 -32 70 -21 15 11 34 83 34 133 0 83 -29 200 -67 269 l-36 68 46 70 c46 68 56 89 38 78 -5 -3 -12 15 -16 40 -7 47 -50 173 -65 187 -4 5 -11 -5 -15 -22 -6 -28 -67 -91 -87 -91 -4 0 -33 16 -63 35 -79 51 -139 75 -225 91 -89 16 -110 17 -110 5z m428 -465 c5 -38 -14 -48 -54 -28 l-33 15 25 24 c33 31 58 26 62 -11z m-136 -96 c-18 -11 -39 -20 -47 -20 -8 0 -15 -4 -15 -9 0 -13 131 -24 180 -16 38 6 41 9 36 31 -5 19 -2 24 13 24 10 0 24 -6 30 -13 8 -10 4 -20 -19 -42 -32 -31 -39 -51 -15 -41 49 20 50 19 26 -7 -14 -15 -30 -27 -37 -27 -7 0 -14 -4 -16 -10 -1 -5 -16 -11 -33 -13 -16 -3 -24 -2 -17 0 23 8 12 22 -18 21 -59 -2 -52 21 13 42 21 7 37 13 35 15 -2 1 -45 5 -96 8 -68 4 -92 3 -91 -6 1 -7 -2 -23 -8 -36 l-9 -23 -17 26 c-19 29 -22 51 -6 40 8 -4 9 1 4 16 -6 19 -4 22 9 17 11 -4 32 3 54 18 20 14 46 25 57 25 16 0 13 -4 -13 -20z m231 -50 c3 -11 1 -23 -4 -26 -5 -3 -9 6 -9 20 0 31 6 34 13 6z m-243 -46 c0 -8 -7 -14 -15 -14 -8 0 -15 5 -15 11 0 5 -4 7 -10 4 -5 -3 -7 0 -4 8 7 18 44 10 44 -9z m50 -44 c0 -5 -7 -10 -15 -10 -8 0 -15 -7 -15 -15 0 -9 7 -18 15 -21 8 -4 15 -11 15 -17 0 -5 -9 -2 -20 8 -23 21 -25 36 -8 53 15 15 28 16 28 2z"/>
<path d="M1463 643 c-9 -3 -9 -11 -2 -31 6 -15 10 -28 9 -30 0 -1 3 -9 8 -18 8 -14 10 -14 21 0 11 13 11 22 1 46 -14 34 -20 39 -37 33z"/>
<path d="M1837 562 c-22 -24 -21 -32 3 -32 15 0 20 7 20 25 0 30 -2 30 -23 7z"/>
<path d="M1405 552 c-13 -13 35 -31 80 -31 28 0 43 3 35 6 -8 2 -24 8 -35 13 -27 11 -73 18 -80 12z"/>
</g>
<g id="layer108" fill="#c8a39a" stroke="none">
<path d="M236 2996 c3 -9 2 -16 -4 -16 -10 0 -34 -66 -47 -127 -9 -45 11 -98 45 -123 35 -25 44 -25 30 -1 -16 31 -12 93 10 129 22 36 24 42 12 42 -15 0 -52 -77 -52 -109 0 -37 -15 -34 -23 5 -5 28 32 164 46 164 4 0 7 -6 7 -14 0 -7 7 -19 15 -26 14 -11 14 -10 5 15 -14 37 -3 47 59 53 33 3 59 -1 82 -12 40 -20 45 -20 29 -2 -22 28 -75 38 -136 27 -42 -8 -61 -8 -71 0 -11 9 -12 8 -7 -5z"/>
<path d="M333 2935 c-18 -8 -33 -19 -33 -26 0 -7 9 -5 26 6 15 9 47 21 73 25 l46 8 -40 0 c-22 1 -55 -5 -72 -13z"/>
<path d="M515 2890 c-4 -6 6 -10 22 -10 22 0 25 2 13 10 -19 12 -27 12 -35 0z"/>
<path d="M631 2891 c-8 -5 -20 -7 -28 -4 -7 3 -13 1 -13 -5 0 -14 63 -52 84 -52 10 0 32 -11 50 -25 38 -29 76 -33 76 -9 0 39 -136 115 -169 95z"/>
<path d="M440 2855 c-14 -7 -25 -17 -25 -22 -1 -4 -18 -26 -38 -47 -20 -22 -37 -44 -37 -48 0 -15 52 -58 78 -65 17 -4 29 -1 37 10 10 14 20 15 66 6 108 -21 125 -21 138 -5 18 22 5 36 -33 36 -19 0 -43 9 -56 20 -35 30 -67 35 -90 15 -23 -21 -39 -13 -20 10 11 13 10 14 -4 9 -9 -3 -16 -16 -16 -27 0 -16 -3 -18 -11 -10 -7 7 -9 23 -5 38 6 25 10 27 41 22 20 -3 35 -2 35 4 0 5 13 3 30 -6 16 -8 36 -15 44 -15 9 0 40 -12 70 -27 46 -22 57 -24 70 -14 9 8 16 19 16 26 0 20 -166 99 -188 89 -32 -14 -70 -14 -74 0 -3 12 -7 13 -28 1z"/>
<path d="M2035 2752 c-29 -21 -95 -104 -95 -119 0 -14 5 -11 18 10 9 15 20 27 25 27 8 0 -17 -44 -44 -75 -10 -11 -35 -47 -57 -79 l-39 -59 46 -23 c26 -13 55 -21 66 -18 14 4 16 3 7 -4 -11 -7 -5 -15 22 -31 20 -13 40 -30 46 -39 8 -14 9 -15 10 -2 0 9 9 16 21 17 25 2 48 20 60 48 9 19 9 19 5 -2 -6 -32 3 -29 58 20 65 58 72 101 28 190 -42 85 -100 147 -138 147 -16 0 -33 -4 -39 -8z"/>
<path d="M295 2596 c-4 -25 -4 -65 -1 -89 6 -37 2 -50 -29 -101 -20 -33 -34 -67 -33 -75 6 -29 36 -23 77 15 30 27 41 44 41 66 0 36 38 128 52 125 6 -1 13 4 16 12 3 9 0 11 -9 6 -8 -5 -4 3 9 17 12 13 19 28 15 31 -13 13 -52 7 -62 -10 -12 -22 -40 -9 -58 27 -11 21 -12 20 -18 -24z"/>
<path d="M1504 2391 c-2 -2 -4 -44 -4 -92 0 -104 6 -110 88 -102 61 7 67 -5 20 -40 -19 -14 -41 -19 -92 -18 -68 0 -84 -12 -51 -39 12 -10 15 -10 16 1 0 8 4 3 10 -9 5 -13 18 -26 29 -29 35 -9 22 -23 -20 -21 -39 1 -52 11 -27 21 7 3 5 6 -5 6 -12 1 -18 -6 -18 -19 0 -11 4 -20 9 -20 5 0 11 -13 13 -30 4 -28 4 -29 -14 -13 -17 15 -18 15 -18 -11 0 -34 16 -66 34 -66 8 0 16 -9 19 -20 5 -21 -7 -28 -18 -10 -4 6 -11 7 -17 4 -6 -4 -13 -2 -17 5 -11 18 -51 -17 -51 -45 0 -18 5 -24 23 -24 13 0 28 5 33 10 7 7 16 4 29 -10 10 -11 24 -20 30 -20 7 0 18 -7 25 -14 13 -17 111 -16 132 1 7 6 36 18 65 27 30 10 54 25 57 34 3 9 16 67 30 127 13 61 29 123 35 138 10 25 8 33 -14 59 -29 34 -31 46 -10 54 27 11 18 62 -18 98 -28 28 -36 31 -60 23 -26 -8 -27 -10 -11 -22 16 -11 16 -13 -7 -20 -13 -4 -34 -17 -46 -28 l-23 -20 0 69 0 69 -76 0 c-42 0 -78 -2 -80 -4z m26 -441 c0 -5 -10 -10 -22 -10 -19 0 -20 2 -8 10 19 13 30 13 30 0z"/>
<path d="M1644 1728 l1 -43 -65 -2 c-36 0 -73 -3 -83 -5 -40 -9 -52 -76 -16 -85 20 -6 21 -7 5 -19 -25 -18 -6 -50 41 -69 49 -21 74 -19 113 8 60 40 64 76 25 235 -9 37 -22 25 -21 -20z"/>
<path d="M1300 1483 c0 -13 32 -33 42 -27 7 4 4 -2 -6 -14 -24 -28 -42 -28 -49 0 -6 22 -6 21 -33 -5 -31 -31 -41 -33 -72 -11 -29 20 -47 7 -63 -47 l-12 -39 -38 35 c-40 36 -98 70 -106 61 -5 -5 62 -132 85 -158 14 -16 13 -18 -9 -19 -23 0 -23 0 -3 -9 12 -5 47 -47 78 -94 37 -58 62 -86 74 -86 17 0 18 5 11 49 -4 27 -13 59 -19 70 -8 15 -7 26 2 40 11 18 14 16 45 -27 18 -26 34 -50 35 -53 2 -4 18 -10 36 -14 26 -5 32 -3 32 9 0 24 59 57 81 45 10 -5 29 -9 42 -9 20 0 24 4 20 19 -3 13 2 21 17 26 22 7 80 -11 80 -25 0 -15 61 -17 69 -3 6 11 12 10 33 -7 14 -11 31 -20 36 -20 17 0 82 -66 82 -83 0 -9 16 -45 35 -80 19 -35 35 -72 34 -83 0 -11 -7 -2 -15 20 -8 22 -22 48 -32 59 -9 10 -22 35 -28 56 -7 24 -15 35 -25 32 -23 -7 -83 -1 -93 9 -26 26 -94 5 -131 -40 -11 -14 -28 -33 -37 -42 -10 -10 -18 -24 -18 -30 0 -7 -8 -1 -18 13 -16 25 -42 29 -42 7 0 -6 -20 -30 -45 -54 -49 -48 -64 -87 -46 -116 6 -10 7 -18 2 -18 -5 0 -12 -15 -16 -32 -15 -72 -26 -108 -35 -108 -5 0 -6 17 -3 38 4 26 3 34 -5 27 -6 -6 -14 -27 -17 -48 -5 -28 -2 -39 9 -43 11 -4 13 -12 6 -29 -8 -20 -5 -23 22 -29 45 -9 86 -7 93 4 3 6 15 10 26 10 11 0 17 4 14 10 -3 5 3 19 13 30 29 31 108 32 147 2 17 -14 31 -19 33 -13 2 6 8 11 14 11 6 0 7 -7 4 -16 -3 -8 -2 -12 4 -9 6 3 10 -5 10 -19 0 -14 -5 -26 -11 -26 -6 0 -9 7 -5 15 3 8 1 15 -4 15 -10 0 -14 -38 -10 -91 1 -22 -5 -29 -31 -38 -77 -27 -193 -2 -238 51 -13 15 -34 28 -47 28 -22 0 -22 -1 -7 -31 12 -23 18 -28 24 -18 6 10 9 8 9 -8 0 -12 4 -32 9 -45 5 -13 12 -35 15 -49 8 -35 74 -109 98 -109 11 0 33 -9 49 -21 19 -13 37 -18 51 -14 54 16 107 38 104 44 -2 3 18 7 46 8 58 1 86 23 117 89 22 46 26 65 14 62 -14 -3 -78 14 -90 24 -7 6 -13 21 -13 34 0 22 -4 24 -45 24 -25 0 -45 4 -45 9 0 4 11 6 24 4 21 -4 25 -1 28 23 2 20 8 28 19 26 9 -1 17 3 16 10 -1 38 5 46 47 58 45 12 91 6 81 -11 -4 -5 -17 -9 -31 -9 -18 0 -25 -5 -22 -17 4 -22 28 -29 28 -8 0 11 5 15 14 12 9 -4 18 2 22 15 4 15 8 17 14 8 5 -9 11 5 16 36 12 77 -17 223 -61 310 l-37 73 45 68 c25 37 41 70 36 73 -5 4 -13 28 -19 56 -8 43 -43 144 -57 167 -3 4 -12 -6 -21 -24 -10 -18 -34 -46 -54 -63 l-38 -29 -22 20 c-38 35 -150 91 -213 106 -64 16 -155 28 -155 20z m439 -470 c1 -6 -6 -18 -14 -27 -14 -14 -19 -14 -49 1 -32 15 -33 17 -17 34 9 10 28 22 41 27 25 10 37 -2 39 -35z m42 -85 c5 -10 16 -18 24 -18 8 0 18 -12 21 -27 5 -19 2 -29 -12 -39 -41 -28 -54 -47 -43 -61 13 -15 -2 -18 -17 -3 -7 7 -21 7 -42 -1 -17 -6 -37 -9 -44 -6 -8 3 -6 6 5 6 9 1 17 5 17 11 0 5 -10 9 -22 9 -23 -1 -89 8 -120 17 -9 3 -15 11 -12 19 5 11 11 11 45 0 33 -12 45 -12 84 2 25 8 45 16 43 18 -2 1 -45 5 -96 8 -68 4 -92 3 -91 -6 1 -7 -2 -23 -8 -36 l-9 -23 -17 26 c-19 29 -22 51 -6 40 8 -4 9 1 4 16 -6 19 -4 22 9 17 11 -4 32 3 54 18 20 14 46 25 57 24 11 0 14 -3 7 -6 -25 -10 -1 -21 41 -17 l42 4 -34 -12 c-26 -9 -38 -9 -53 1 -15 9 -23 10 -31 2 -6 -6 -19 -11 -29 -11 -10 0 -18 -4 -18 -9 0 -13 131 -24 179 -16 44 7 58 34 19 36 -17 1 -19 2 -5 6 24 6 21 21 -5 26 -13 3 -6 4 15 4 26 -1 42 -7 48 -19z m-151 -148 c0 -5 -7 -10 -15 -10 -8 0 -15 -7 -15 -15 0 -9 7 -18 15 -21 8 -4 15 -11 15 -17 0 -5 -9 -2 -20 8 -23 21 -25 36 -8 53 15 15 28 16 28 2z"/>
<path d="M1750 855 c-16 -19 0 -19 26 0 16 12 16 14 3 15 -9 0 -22 -7 -29 -15z"/>
<path d="M1119 860 c-36 -38 -79 -141 -79 -190 0 -53 72 -66 120 -22 27 24 33 38 45 117 19 117 20 111 -17 124 -29 10 -33 9 -69 -29z"/>
<path d="M1463 643 c-10 -3 -10 -10 -2 -24 5 -11 7 -23 5 -28 -9 -14 26 -23 38 -10 8 8 8 13 -2 16 -6 3 -10 8 -7 12 7 12 -19 39 -32 34z"/>
<path d="M1742 598 c7 -19 38 -22 38 -4 0 10 -9 16 -21 16 -12 0 -19 -5 -17 -12z"/>
<path d="M1426 535 c11 -8 39 -14 64 -14 25 1 36 4 25 6 -11 3 -24 9 -30 13 -5 4 -25 8 -44 8 -30 1 -32 0 -15 -13z"/>
</g>
<g id="layer109" fill="#c7b9cb" stroke="none">
<path d="M2056 3702 c-4 -13 -5 -26 -2 -29 10 -11 18 4 14 29 l-4 23 -8 -23z"/>
<path d="M236 2996 c3 -9 2 -16 -4 -16 -14 0 -47 -107 -47 -155 0 -23 8 -53 18 -69 24 -35 32 -28 12 10 -20 39 -19 70 5 123 11 24 20 49 20 57 0 17 17 18 23 2 3 -7 6 -3 6 8 2 36 105 48 164 18 30 -15 31 -15 16 1 -24 24 -80 34 -139 23 -37 -7 -55 -6 -66 3 -12 10 -13 9 -8 -5z"/>
<path d="M547 2823 c-4 -3 -7 -9 -7 -13 0 -11 50 -31 61 -25 17 11 9 33 -13 39 -29 7 -33 7 -41 -1z"/>
<path d="M776 2794 c-4 -10 -1 -14 6 -12 15 5 23 28 10 28 -5 0 -13 -7 -16 -16z"/>
<path d="M690 2755 c0 -8 7 -15 15 -15 8 0 15 7 15 15 0 8 -7 15 -15 15 -8 0 -15 -7 -15 -15z"/>
<path d="M1998 2713 c-25 -27 -49 -59 -53 -73 -5 -21 -3 -19 15 9 21 33 21 33 42 15 66 -60 81 -78 109 -139 26 -54 30 -73 25 -107 l-7 -41 43 35 c24 19 49 46 56 59 29 54 -10 162 -88 247 -54 58 -81 57 -142 -5z"/>
<path d="M380 2725 c0 -14 60 -47 69 -39 8 7 -42 54 -56 54 -7 0 -13 -7 -13 -15z"/>
<path d="M622 2698 c6 -18 28 -21 28 -4 0 9 -7 16 -16 16 -9 0 -14 -5 -12 -12z"/>
<path d="M313 2564 c-8 -23 12 -38 41 -30 33 8 33 20 1 34 -33 15 -34 15 -42 -4z"/>
<path d="M273 2396 c-41 -42 -55 -76 -32 -76 5 0 7 5 4 10 -3 6 0 10 9 10 8 0 16 -6 19 -12 2 -7 11 1 20 18 9 17 23 34 30 37 14 5 12 57 -2 57 -3 0 -25 -20 -48 -44z"/>
<path d="M1504 2323 c-7 -79 -1 -118 19 -126 6 -2 36 -2 65 1 61 5 63 9 65 119 l2 68 -72 5 -72 5 -7 -72z"/>
<path d="M1695 2230 c-9 -28 3 -43 30 -38 21 4 21 3 9 -21 -8 -14 -14 -34 -14 -45 0 -15 -3 -16 -15 -6 -8 7 -15 23 -15 35 0 14 -7 25 -19 28 -23 6 -41 -10 -41 -35 0 -13 -8 -18 -27 -18 -31 0 -93 -21 -93 -31 0 -10 76 -21 120 -18 61 4 88 -1 94 -18 10 -25 -8 -31 -100 -32 -144 -3 -179 -31 -64 -52 62 -11 78 -10 126 5 56 18 74 15 74 -10 0 -10 -14 -14 -56 -14 -34 0 -53 -4 -49 -10 4 -6 -9 -10 -31 -10 -40 0 -104 -19 -104 -31 0 -17 62 -28 112 -18 29 5 78 11 108 14 l56 6 27 114 27 115 -37 40 c-21 22 -44 40 -51 40 -7 0 -15 7 -18 15 -9 22 -42 18 -49 -5z"/>
<path d="M1416 1844 c-9 -22 -8 -24 9 -18 8 4 15 12 15 20 0 19 -16 18 -24 -2z"/>
<path d="M1582 1834 c-24 -16 -30 -36 -9 -30 6 2 34 10 60 17 33 8 44 15 35 20 -21 14 -62 10 -86 -7z"/>
<path d="M1649 1730 l-4 -45 -50 -2 c-115 -3 -135 -12 -135 -61 0 -16 7 -26 20 -29 25 -7 26 -23 3 -23 -15 0 -16 -2 -3 -10 8 -5 11 -10 5 -11 -17 -2 58 -20 93 -23 19 -2 37 -8 41 -15 11 -17 56 21 68 56 10 27 -5 131 -26 185 -8 19 -10 16 -12 -22z"/>
<path d="M1328 1473 c13 -3 27 -15 32 -29 6 -15 17 -24 31 -24 12 0 37 -12 55 -27 19 -16 49 -40 68 -55 18 -16 38 -28 42 -28 5 -1 22 -18 38 -38 16 -20 52 -53 80 -72 27 -19 63 -48 79 -63 16 -15 36 -27 45 -25 19 4 86 99 75 107 -5 3 -9 25 -11 49 -4 62 -72 231 -72 179 0 -18 -53 -83 -81 -98 -14 -7 -29 -2 -67 26 -88 63 -209 106 -292 104 -25 -1 -35 -4 -22 -6z"/>
<path d="M1262 1440 c-18 -29 -59 -36 -83 -14 -20 18 -21 18 -40 -5 -10 -13 -19 -34 -19 -47 0 -34 -14 -37 -41 -8 -23 25 -109 77 -116 71 -4 -5 65 -136 84 -158 8 -9 13 -20 11 -25 -4 -15 52 -96 98 -144 l44 -44 0 29 c0 16 -7 49 -16 72 -16 42 -16 44 10 98 14 31 26 60 26 64 0 5 14 21 31 35 30 25 49 79 31 89 -4 3 -13 -3 -20 -13z"/>
<path d="M1765 1050 c-5 -8 -10 -21 -11 -30 -1 -8 -5 -25 -9 -37 -8 -24 6 -35 48 -37 17 -1 26 -12 39 -51 9 -27 15 -61 12 -75 -14 -78 -13 -90 7 -90 11 0 19 -7 19 -17 0 -15 2 -14 15 3 19 25 19 78 0 94 -8 7 -15 20 -16 29 -1 32 -45 146 -56 144 -6 -1 -18 16 -25 39 -11 31 -17 38 -23 28z"/>
<path d="M1665 933 c-47 -7 -49 -19 -2 -16 41 3 41 2 12 -8 -16 -6 -47 -10 -67 -10 -21 1 -38 -4 -38 -9 0 -11 138 -14 165 -3 15 5 14 8 -6 19 -15 8 -18 13 -9 14 13 0 13 1 0 10 -8 5 -17 9 -20 8 -3 0 -18 -3 -35 -5z"/>
<path d="M1142 852 c-7 -5 -6 -13 3 -26 14 -19 35 -14 35 9 0 16 -23 26 -38 17z"/>
<path d="M1426 778 c-21 -30 -20 -41 5 -56 17 -11 25 -11 45 3 30 19 30 26 1 53 -29 27 -32 27 -51 0z"/>
<path d="M1137 770 c-6 -22 2 -60 12 -60 4 0 12 18 18 40 9 35 8 40 -7 40 -10 0 -20 -9 -23 -20z"/>
<path d="M1690 750 c0 -5 20 -10 44 -10 25 0 48 5 51 10 4 6 -13 10 -44 10 -28 0 -51 -4 -51 -10z"/>
<path d="M1098 716 c-6 -31 0 -66 12 -66 4 0 15 8 24 19 16 18 16 20 -7 47 l-24 28 -5 -28z"/>
<path d="M1745 600 c-3 -5 -4 -10 -1 -10 2 0 11 -3 20 -6 11 -4 16 -1 16 10 0 18 -25 22 -35 6z"/>
<path d="M1480 585 c0 -8 5 -15 10 -15 6 0 10 7 10 15 0 8 -4 15 -10 15 -5 0 -10 -7 -10 -15z"/>
<path d="M1520 451 c-31 -5 -35 -10 -38 -38 -2 -24 1 -33 12 -33 8 0 13 6 11 13 -3 7 11 19 35 29 22 9 40 21 40 27 0 12 -5 12 -60 2z"/>
<path d="M1784 445 c25 -19 42 -19 50 0 4 12 -3 15 -32 15 -35 -1 -36 -2 -18 -15z"/>
</g>
<g id="layer110" fill="#dfdfe9" stroke="none">
<path d="M328 2993 c18 -2 45 -2 60 0 15 2 0 4 -33 4 -33 0 -45 -2 -27 -4z"/>
<path d="M224 2963 c-3 -10 -12 -34 -19 -53 -22 -56 -25 -93 -11 -125 13 -30 13 -29 9 16 -4 33 1 59 16 94 11 26 21 53 21 60 0 8 6 16 13 18 7 3 5 6 -6 6 -10 1 -20 -7 -23 -16z"/>
<path d="M2049 2753 c-1 -5 -1 -11 0 -15 0 -4 -14 -16 -32 -27 l-33 -20 61 -64 c68 -69 100 -140 93 -203 -2 -19 -2 -34 2 -34 3 0 24 17 48 39 39 36 42 42 42 90 0 62 -30 127 -86 188 -35 37 -92 65 -95 46z"/>
<path d="M1514 2298 l3 -93 50 -3 c37 -2 55 2 67 14 19 18 17 60 -2 57 -6 -2 -12 2 -12 7 0 6 7 10 16 10 13 0 15 7 9 38 -4 20 -8 43 -8 50 0 8 -20 12 -63 12 l-63 0 3 -92z"/>
<path d="M245 2360 c-8 -13 15 -13 35 0 12 8 11 10 -7 10 -12 0 -25 -4 -28 -10z"/>
<path d="M1580 1923 c-30 -6 -51 -23 -28 -23 31 0 78 13 78 21 0 9 -7 9 -50 2z"/>
<path d="M1651 1710 c1 -36 5 -69 8 -75 3 -5 6 -18 7 -27 5 -57 4 -55 15 -35 8 14 6 42 -6 105 -10 48 -19 89 -22 92 -3 3 -4 -24 -2 -60z"/>
<path d="M1520 1675 c0 -12 53 -25 76 -19 41 10 27 24 -26 24 -27 0 -50 -2 -50 -5z"/>
<path d="M1472 1630 c0 -19 2 -27 5 -17 2 9 2 25 0 35 -3 9 -5 1 -5 -18z"/>
<path d="M1542 1585 l-23 -23 23 -4 c13 -2 37 -1 53 2 28 6 29 7 8 14 -13 4 -22 12 -20 18 4 20 -18 16 -41 -7z"/>
<path d="M1363 1455 c16 -15 40 -25 58 -25 23 0 29 -4 30 -22 0 -18 14 -30 62 -53 40 -20 69 -42 84 -65 43 -65 47 -70 60 -70 7 0 20 -11 29 -25 9 -14 22 -25 29 -25 7 0 24 -11 40 -26 15 -14 30 -22 34 -19 3 4 6 29 6 56 0 51 3 57 23 37 15 -15 16 -42 0 -32 -7 5 -8 3 -3 -6 6 -10 13 -8 28 11 27 34 19 116 -21 200 -17 35 -31 56 -32 47 0 -24 -64 -85 -107 -103 -45 -19 -52 -19 -27 -1 19 15 19 15 -1 30 -70 54 -232 116 -300 116 -18 -1 -17 -3 8 -25z"/>
<path d="M1270 1455 c-1 -19 -36 -52 -61 -59 -13 -3 -18 -3 -11 0 9 4 5 12 -12 25 -32 25 -35 25 -51 -14 -15 -36 -10 -90 6 -65 7 10 9 9 9 -4 0 -34 -23 -31 -55 7 -19 24 -36 35 -44 31 -7 -4 -10 -2 -9 5 3 13 -59 55 -69 46 -3 -3 9 -29 26 -57 17 -28 31 -53 31 -56 0 -3 16 -26 35 -52 l36 -46 -7 44 c-4 25 -12 48 -18 52 -6 4 -7 8 -2 8 5 0 1 9 -9 20 -10 11 -13 20 -7 20 24 0 50 -51 57 -112 3 -35 14 -78 23 -95 l17 -33 2 38 c2 47 64 196 97 235 36 40 36 41 25 57 -5 8 -9 11 -9 5z"/>
<path d="M1660 901 c-8 -6 -18 -7 -22 -5 -4 3 -8 0 -8 -5 0 -12 51 -14 88 -4 18 4 20 8 10 14 -17 11 -49 11 -68 0z"/>
<path d="M1855 779 c-8 -23 -1 -34 14 -24 13 8 15 45 2 45 -5 0 -13 -9 -16 -21z"/>
<path d="M1147 783 c-4 -3 -7 -15 -7 -27 0 -20 0 -20 15 0 8 10 15 22 15 27 0 9 -14 9 -23 0z"/>
<path d="M1446 773 c-13 -14 -5 -33 14 -33 11 0 20 6 20 14 0 15 -24 28 -34 19z"/>
<path d="M1100 696 c0 -19 4 -37 9 -40 10 -7 21 42 14 61 -10 25 -23 13 -23 -21z"/>
</g>


</svg>